<svg width="246" height="193" viewBox="0 0 246 193" fill="none" xmlns="http://www.w3.org/2000/svg">
<path fill-rule="evenodd" clip-rule="evenodd" d="M121.428 27.3271C123.663 26.1079 126.157 25.4702 128.691 25.4706H128.692H168.308H168.309C170.843 25.4702 173.337 26.1079 175.572 27.3271C177.805 28.5457 179.709 30.3077 181.115 32.4567L181.117 32.4597L189.448 45.229L189.451 45.2338C191.795 48.8178 194.969 51.7562 198.693 53.7882C202.417 55.82 206.575 56.8829 210.797 56.8824H210.798H220.342C224.425 56.8824 228.341 58.5371 231.228 61.4825C234.115 64.4279 235.737 68.4228 235.737 72.5882V166.824C235.737 170.989 234.115 174.984 231.228 177.929C228.341 180.875 224.425 182.529 220.342 182.529H76.6579C72.575 182.529 68.6592 180.875 65.7722 177.929C62.8851 174.984 61.2632 170.989 61.2632 166.824V72.5882C61.2632 68.4228 62.8851 64.4279 65.7722 61.4825C68.6592 58.5371 72.575 56.8824 76.6579 56.8824H86.2019H86.2026C90.4255 56.8829 94.5831 55.82 98.3068 53.7882C102.031 51.7562 105.205 48.8178 107.549 45.2338L107.552 45.229L115.883 32.4597L115.885 32.4567C117.291 30.3077 119.195 28.5457 121.428 27.3271ZM116.588 18.0942C120.312 16.0623 124.469 14.9995 128.692 15H128.693H168.307H168.308C172.531 14.9995 176.688 16.0623 180.412 18.0942C184.136 20.1262 187.311 23.0645 189.654 26.6485L189.658 26.6534L197.988 39.4226L197.99 39.4256C199.396 41.5747 201.3 43.3366 203.534 44.5553C205.768 45.7745 208.263 46.4122 210.797 46.4118H210.797H220.342C227.147 46.4118 233.673 49.1696 238.485 54.0787C243.297 58.9877 246 65.6458 246 72.5882V166.824C246 173.766 243.297 180.424 238.485 185.333C233.673 190.242 227.147 193 220.342 193H76.6579C69.853 193 63.3268 190.242 58.515 185.333C53.7032 180.424 51 173.766 51 166.824V72.5882C51 65.6458 53.7032 58.9877 58.515 54.0787C63.3268 49.1696 69.853 46.4118 76.6579 46.4118H86.2026H86.2034C88.7373 46.4122 91.232 45.7745 93.4664 44.5553C95.6997 43.3366 97.6038 41.5747 99.0099 39.4256L99.0118 39.4226L107.342 26.6534L107.346 26.6485C109.689 23.0645 112.864 20.1262 116.588 18.0942ZM130.357 95.961C135.169 91.052 141.695 88.2941 148.5 88.2941C155.305 88.2941 161.831 91.052 166.643 95.961C171.455 100.87 174.158 107.528 174.158 114.471C174.158 121.413 171.455 128.071 166.643 132.98C161.831 137.889 155.305 140.647 148.5 140.647C141.695 140.647 135.169 137.889 130.357 132.98C125.545 128.071 122.842 121.413 122.842 114.471C122.842 107.528 125.545 100.87 130.357 95.961ZM148.5 77.8235C138.973 77.8235 129.836 81.6845 123.1 88.5572C116.363 95.4299 112.579 104.751 112.579 114.471C112.579 124.19 116.363 133.511 123.1 140.384C129.836 147.257 138.973 151.118 148.5 151.118C158.027 151.118 167.164 147.257 173.9 140.384C180.637 133.511 184.421 124.19 184.421 114.471C184.421 104.751 180.637 95.4299 173.9 88.5572C167.164 81.6845 158.027 77.8235 148.5 77.8235Z" fill="#5290F6"/>
<path fill-rule="evenodd" clip-rule="evenodd" d="M86.9267 96.0404C79.4727 101.339 70.3833 103.826 61.2702 103.062C52.1571 102.297 43.6091 98.3299 37.1422 91.8637C30.6752 85.3975 26.7071 76.8501 25.9414 67.737C25.1758 58.624 27.6621 49.5343 32.9595 42.0797L86.9267 96.0533V96.0404ZM96.047 86.9201L42.0798 32.9594C49.5341 27.6576 58.6255 25.1676 67.7411 25.9313C76.8566 26.695 85.407 30.6629 91.8752 37.1312C98.3435 43.5994 102.311 52.1498 103.075 61.2653C103.839 70.3808 101.349 79.4722 96.047 86.9266V86.9201ZM116.1 64.4999C116.1 78.1851 110.664 91.3097 100.987 100.987C91.3099 110.663 78.1852 116.1 64.5 116.1C50.8149 116.1 37.6902 110.663 28.0133 100.987C18.3364 91.3097 12.9 78.1851 12.9 64.4999C12.9 50.8147 18.3364 37.6901 28.0133 28.0132C37.6902 18.3363 50.8149 12.8999 64.5 12.8999C78.1852 12.8999 91.3099 18.3363 100.987 28.0132C110.664 37.6901 116.1 50.8147 116.1 64.4999V64.4999Z" fill="#FF6565"/>
</svg>
