<svg width="406" height="406" viewBox="0 0 406 406" fill="none" xmlns="http://www.w3.org/2000/svg">
<path fill-rule="evenodd" clip-rule="evenodd" d="M160.405 81.7175C163.939 79.7889 167.885 78.7802 171.894 78.7808H234.56C238.568 78.7802 242.515 79.7889 246.05 81.7175C249.582 83.6452 252.594 86.4322 254.818 89.8316L254.822 89.8363L267.999 110.035L268.004 110.043C271.711 115.712 276.733 120.36 282.624 123.574C288.514 126.788 295.091 128.469 301.77 128.469H316.868C323.327 128.469 329.521 131.086 334.088 135.745C338.654 140.404 341.22 146.723 341.22 153.312V302.375C341.22 308.964 338.654 315.284 334.088 319.943C329.521 324.602 323.327 327.219 316.868 327.219H89.5861C83.1277 327.219 76.9337 324.602 72.3669 319.943C67.8001 315.284 65.2345 308.964 65.2345 302.375V153.312C65.2345 146.723 67.8001 140.404 72.3669 135.745C76.9337 131.086 83.1277 128.469 89.5861 128.469H104.683C111.363 128.469 117.941 126.788 123.831 123.574C129.721 120.36 134.743 115.712 138.451 110.043L138.456 110.035L151.633 89.8363L151.636 89.8316C153.86 86.4322 156.872 83.6452 160.405 81.7175ZM152.748 67.1127C158.638 63.8986 165.215 62.2174 171.895 62.2183H234.559C241.238 62.2174 247.816 63.8986 253.706 67.1127C259.597 70.327 264.619 74.9749 268.326 80.6441L268.331 80.6518L281.509 100.85L281.512 100.855C283.736 104.255 286.748 107.042 290.28 108.969C293.815 110.898 297.761 111.907 301.769 111.906H316.868C327.633 111.906 337.956 116.268 345.567 124.034C353.178 131.799 357.455 142.331 357.455 153.312V302.375C357.455 313.357 353.178 323.889 345.567 331.654C337.956 339.419 327.633 343.782 316.868 343.782H89.5861C78.822 343.782 68.4988 339.419 60.8874 331.654C53.276 323.889 49 313.357 49 302.375V153.312C49 142.331 53.276 131.799 60.8874 124.034C68.4988 116.268 78.822 111.906 89.5861 111.906H104.684C108.692 111.907 112.64 110.898 116.174 108.969C119.707 107.042 122.719 104.255 124.943 100.855L124.946 100.85L138.123 80.6518L138.128 80.6441C141.836 74.9749 146.858 70.327 152.748 67.1127ZM174.529 190.284C182.14 182.519 192.463 178.156 203.227 178.156C213.991 178.156 224.315 182.519 231.926 190.284C239.537 198.049 243.813 208.581 243.813 219.563C243.813 230.544 239.537 241.076 231.926 248.841C224.315 256.607 213.991 260.969 203.227 260.969C192.463 260.969 182.14 256.607 174.529 248.841C166.917 241.076 162.641 230.544 162.641 219.563C162.641 208.581 166.917 198.049 174.529 190.284ZM203.227 161.594C188.158 161.594 173.705 167.701 163.049 178.572C152.393 189.444 146.407 204.188 146.407 219.563C146.407 234.937 152.393 249.682 163.049 260.553C173.705 271.424 188.158 277.532 203.227 277.532C218.297 277.532 232.75 271.424 243.405 260.553C254.061 249.682 260.048 234.937 260.048 219.563C260.048 204.188 254.061 189.444 243.405 178.572C232.75 167.701 218.297 161.594 203.227 161.594Z" fill="#5290F6"/>
<path fill-rule="evenodd" clip-rule="evenodd" d="M101.009 151.503C94.0624 156.44 85.5918 158.758 77.099 158.046C68.6063 157.333 60.6403 153.636 54.6136 147.61C48.5869 141.584 44.8889 133.619 44.1753 125.126C43.4618 116.633 45.7789 108.162 50.7157 101.215L101.009 151.515V151.503ZM109.508 143.003L59.2151 92.7159C66.1619 87.775 74.6344 85.4545 83.1294 86.1662C91.6244 86.8779 99.5927 90.5757 105.621 96.6037C111.649 102.632 115.346 110.6 116.058 119.095C116.77 127.59 114.449 136.062 109.508 143.009V143.003ZM128.196 122.109C128.196 134.863 123.13 147.094 114.112 156.112C105.094 165.13 92.8625 170.197 80.109 170.197C67.3555 170.197 55.1243 165.13 46.1062 156.112C37.0881 147.094 32.0217 134.863 32.0217 122.109C32.0217 109.356 37.0881 97.1245 46.1062 88.1064C55.1243 79.0883 67.3555 74.022 80.109 74.022C92.8625 74.022 105.094 79.0883 114.112 88.1064C123.13 97.1245 128.196 109.356 128.196 122.109V122.109Z" fill="#FF6565"/>
</svg>
