<svg width="406" height="406" viewBox="0 0 406 406" fill="none" xmlns="http://www.w3.org/2000/svg">
<path fill-rule="evenodd" clip-rule="evenodd" d="M56.7651 85.6042C64.8104 77.5589 75.7222 73.0391 87.0999 73.0391H318.1C329.478 73.0391 340.389 77.5589 348.435 85.6042C356.48 93.6495 361 104.561 361 115.939V280.939C361 292.317 356.48 303.229 348.435 311.274C340.39 319.319 329.478 323.839 318.1 323.839H252.405L261.039 358.378L275.6 372.939C278.432 375.77 279.279 380.028 277.746 383.728C276.214 387.427 272.604 389.839 268.6 389.839H136.6C132.596 389.839 128.986 387.427 127.454 383.728C125.921 380.028 126.768 375.77 129.6 372.939L144.161 358.378L152.795 323.839H87.0999C75.7222 323.839 64.8104 319.319 56.7651 311.274C48.7198 303.229 44.2 292.317 44.2 280.939V115.939C44.2 104.561 48.7198 93.6495 56.7651 85.6042ZM64 257.839H341.2V280.939C341.2 287.066 338.766 292.941 334.434 297.273C330.102 301.605 324.226 304.039 318.1 304.039H87.0999C80.9734 304.039 75.0979 301.605 70.7658 297.273C66.4337 292.941 64 287.066 64 280.939V257.839ZM341.2 238.039H64V115.939C64 109.813 66.4337 103.937 70.7658 99.6049C75.0979 95.2728 80.9734 92.8391 87.0999 92.8391H318.1C324.226 92.8391 330.102 95.2728 334.434 99.6049C338.766 103.937 341.2 109.813 341.2 115.939V238.039ZM173.205 323.839L162.704 365.84C162.314 367.402 161.549 368.843 160.479 370.039H244.721C243.651 368.843 242.886 367.402 242.496 365.84L231.995 323.839H173.205Z" fill="url(#paint0_linear_291_92)"/>
<path fill-rule="evenodd" clip-rule="evenodd" d="M225.958 115.789C218.195 121.308 208.728 123.899 199.236 123.102C189.745 122.306 180.842 118.174 174.106 111.439C167.371 104.705 163.238 95.8022 162.44 86.3107C161.643 76.8193 164.233 67.352 169.75 59.5879L225.958 115.803V115.789ZM235.457 106.29L179.249 50.0888C187.013 44.5668 196.482 41.9734 205.976 42.7688C215.47 43.5642 224.375 47.697 231.112 54.4338C237.849 61.1707 241.982 70.0761 242.777 79.5702C243.573 89.0643 240.979 98.5333 235.457 106.297V106.29ZM256.343 82.9392C256.343 97.1926 250.681 110.862 240.602 120.941C230.523 131.02 216.854 136.682 202.6 136.682C188.347 136.682 174.677 131.02 164.598 120.941C154.52 110.862 148.857 97.1926 148.857 82.9392C148.857 68.6857 154.52 55.016 164.598 44.9372C174.677 34.8585 188.347 29.1963 202.6 29.1963C216.854 29.1963 230.523 34.8585 240.602 44.9372C250.681 55.016 256.343 68.6857 256.343 82.9392V82.9392Z" fill="#FF6565"/>
<defs>
<linearGradient id="paint0_linear_291_92" x1="361" y1="231.439" x2="44.2" y2="231.439" gradientUnits="userSpaceOnUse">
<stop stop-color="#3C82FD"/>
<stop offset="1" stop-color="#529FFB"/>
</linearGradient>
</defs>
</svg>
