<svg width="406" height="406" viewBox="0 0 406 406" fill="none" xmlns="http://www.w3.org/2000/svg">
<path fill-rule="evenodd" clip-rule="evenodd" d="M108.655 103.87C98.9245 103.87 89.5923 107.717 82.7117 114.567C75.831 121.416 71.9655 130.705 71.9655 140.391V223.87H334.034V140.391C334.034 130.705 330.169 121.416 323.288 114.567C316.408 107.717 307.076 103.87 297.345 103.87H108.655ZM355 140.391C355 125.17 348.926 110.572 338.113 99.8095C327.301 89.0466 312.636 83 297.345 83H108.655C93.3641 83 78.6993 89.0466 67.8868 99.8095C57.0744 110.572 51 125.17 51 140.391V265.609C51 280.83 57.0744 295.428 67.8868 306.19C78.6992 316.953 93.3641 323 108.655 323H297.345C312.636 323 327.301 316.953 338.113 306.19C348.926 295.428 355 280.83 355 265.609V140.391ZM334.034 244.739H71.9655V265.609C71.9655 275.295 75.831 284.584 82.7117 291.433C89.5923 298.283 98.9245 302.13 108.655 302.13H297.345C307.076 302.13 316.408 298.283 323.288 291.433C330.169 284.584 334.034 275.295 334.034 265.609V244.739ZM113.897 156.043C113.897 150.281 118.59 145.609 124.379 145.609H140.103C145.893 145.609 150.586 150.281 150.586 156.043C150.586 161.806 145.893 166.478 140.103 166.478H124.379C118.59 166.478 113.897 161.806 113.897 156.043ZM192.517 156.043C192.517 150.281 197.211 145.609 203 145.609H218.724C224.514 145.609 229.207 150.281 229.207 156.043C229.207 161.806 224.514 166.478 218.724 166.478H203C197.211 166.478 192.517 161.806 192.517 156.043Z" fill="url(#paint0_linear_310_34)"/>
<path fill-rule="evenodd" clip-rule="evenodd" d="M94.009 135.502C87.0625 140.44 78.5918 142.758 70.0991 142.046C61.6064 141.333 53.6404 137.636 47.6136 131.61C41.5869 125.584 37.8889 117.618 37.1754 109.126C36.4619 100.633 38.7789 92.1622 43.7157 85.2151L94.009 135.514V135.502ZM102.508 127.003L52.2151 76.7157C59.162 71.7747 67.6345 69.4543 76.1295 70.166C84.6245 70.8777 92.5928 74.5755 98.6207 80.6034C104.649 86.6313 108.346 94.5996 109.058 103.095C109.77 111.59 107.449 120.062 102.508 127.009V127.003ZM121.196 106.109C121.196 118.863 116.13 131.094 107.112 140.112C98.0938 149.13 85.8626 154.196 73.1091 154.196C60.3555 154.196 48.1243 149.13 39.1062 140.112C30.0881 131.094 25.0218 118.863 25.0218 106.109C25.0218 93.3555 30.0881 81.1243 39.1062 72.1062C48.1243 63.0881 60.3555 58.0217 73.1091 58.0217C85.8626 58.0217 98.0938 63.0881 107.112 72.1062C116.13 81.1243 121.196 93.3555 121.196 106.109Z" fill="#FF6565"/>
<defs>
<linearGradient id="paint0_linear_310_34" x1="355" y1="203" x2="51" y2="203" gradientUnits="userSpaceOnUse">
<stop stop-color="#3C82FD"/>
<stop offset="1" stop-color="#529FFB"/>
</linearGradient>
</defs>
</svg>
