<svg width="128" height="128" viewBox="0 0 128 128" fill="none" xmlns="http://www.w3.org/2000/svg">
<path fill-rule="evenodd" clip-rule="evenodd" d="M18.6666 37.3334C18.6666 35.8607 19.8605 34.6667 21.3333 34.6667H32C33.4727 34.6667 34.6666 35.8607 34.6666 37.3334C34.6666 38.8062 33.4727 40.0001 32 40.0001H24V48.0001C24 49.4728 22.8061 50.6667 21.3333 50.6667C19.8605 50.6667 18.6666 49.4728 18.6666 48.0001V37.3334ZM93.3333 37.3334C93.3333 35.8607 94.5272 34.6667 96 34.6667H106.667C108.139 34.6667 109.333 35.8607 109.333 37.3334V48.0001C109.333 49.4728 108.139 50.6667 106.667 50.6667C105.194 50.6667 104 49.4728 104 48.0001V40.0001H96C94.5272 40.0001 93.3333 38.8062 93.3333 37.3334ZM21.3333 77.3334C22.8061 77.3334 24 78.5273 24 80.0001V88.0001H32C33.4727 88.0001 34.6666 89.194 34.6666 90.6667C34.6666 92.1395 33.4727 93.3334 32 93.3334H21.3333C19.8605 93.3334 18.6666 92.1395 18.6666 90.6667V80.0001C18.6666 78.5273 19.8605 77.3334 21.3333 77.3334ZM106.667 77.3334C108.139 77.3334 109.333 78.5273 109.333 80.0001V90.6667C109.333 92.1395 108.139 93.3334 106.667 93.3334H96C94.5272 93.3334 93.3333 92.1395 93.3333 90.6667C93.3333 89.194 94.5272 88.0001 96 88.0001H104V80.0001C104 78.5273 105.194 77.3334 106.667 77.3334Z" fill="#F27071"/>
<path d="M32 64C33.1733 62.4 44.3733 48 64 48C65.9733 48 84.2133 48.32 96 64C94.8267 65.6 83.6267 80 64 80C62.0267 80 43.7867 79.68 32 64Z" fill="#F2B3B3"/>
<path fill-rule="evenodd" clip-rule="evenodd" d="M35.4202 64.0159C46.3997 77.0312 62.2562 77.3335 63.9999 77.3335C79.2954 77.3335 89.1471 67.9108 92.5796 63.9844C81.6002 50.9691 65.7436 50.6668 63.9999 50.6668C48.7044 50.6668 38.8527 60.0895 35.4202 64.0159ZM29.8495 62.4232C31.1382 60.6659 43.0327 45.3335 63.9999 45.3335C66.1334 45.3335 85.5396 45.6466 98.1315 62.3978C98.8379 63.3376 98.8456 64.6291 98.1503 65.5771C96.8616 67.3345 84.9671 82.6668 63.9999 82.6668C61.8665 82.6668 42.4602 82.3537 29.8683 65.6025C29.1619 64.6627 29.1543 63.3712 29.8495 62.4232Z" fill="#F27071"/>
<path fill-rule="evenodd" clip-rule="evenodd" d="M58.6763 54.1657C57.0763 56.5657 56 60.0349 56 64.0002C56 67.9654 57.0763 71.4346 58.6763 73.8347C60.2887 76.2533 62.2235 77.3335 64 77.3335C65.7765 77.3335 67.7112 76.2533 69.3236 73.8347C70.9237 71.4346 72 67.9654 72 64.0002C72 60.0349 70.9237 56.5657 69.3236 54.1657C67.7112 51.747 65.7765 50.6668 64 50.6668C62.2235 50.6668 60.2887 51.747 58.6763 54.1657ZM54.2387 51.2073C56.4868 47.8351 59.8854 45.3335 64 45.3335C68.1145 45.3335 71.5131 47.8351 73.7612 51.2073C76.0218 54.5981 77.3333 59.1288 77.3333 64.0002C77.3333 68.8715 76.0218 73.4022 73.7612 76.7931C71.5131 80.1653 68.1145 82.6668 64 82.6668C59.8854 82.6668 56.4868 80.1653 54.2387 76.7931C51.9781 73.4022 50.6666 68.8715 50.6666 64.0002C50.6666 59.1288 51.9781 54.5981 54.2387 51.2073Z" fill="#F27071"/>
<path fill-rule="evenodd" clip-rule="evenodd" d="M96 56.0001C91.5817 56.0001 88 59.5818 88 64.0001C88 65.2351 88.2798 66.4048 88.7796 67.4492C88.7801 67.4487 88.7805 67.4483 88.781 67.4478L99.4477 56.7811C99.4481 56.7807 99.4486 56.7802 99.4491 56.7797C98.4047 56.28 97.235 56.0001 96 56.0001ZM103.22 60.551C103.22 60.5514 103.219 60.5519 103.219 60.5524L92.5522 71.219C92.5518 71.2195 92.5513 71.22 92.5508 71.2204C93.5952 71.7202 94.7649 72.0001 96 72.0001C100.418 72.0001 104 68.4184 104 64.0001C104 62.765 103.72 61.5953 103.22 60.551ZM82.6666 64.0001C82.6666 56.6363 88.6362 50.6667 96 50.6667C103.364 50.6667 109.333 56.6363 109.333 64.0001C109.333 71.3639 103.364 77.3334 96 77.3334C88.6362 77.3334 82.6666 71.3639 82.6666 64.0001Z" fill="#ED1C24"/>
</svg>
