<svg width="128" height="128" viewBox="0 0 128 128" fill="none" xmlns="http://www.w3.org/2000/svg">
<path d="M59.4369 60.1877C59.2414 61.2383 58.7284 63.3149 56.9938 65.0739C55.7967 66.3198 54.3797 67.0039 53.0116 67.3948C49.5913 68.3476 47.2216 71.4747 47.2216 75.0171V79.7322H81.4244V75.0171C81.4244 71.4747 79.0547 68.3476 75.6344 67.3948C74.2663 67.0039 72.8493 66.3198 71.6522 65.0739C69.9176 63.3149 69.4046 61.2383 69.2091 60.1877" fill="#F2B3B3"/>
<path fill-rule="evenodd" clip-rule="evenodd" d="M59.6603 58.9871C60.3235 59.1105 60.7612 59.7482 60.6378 60.4115C60.4259 61.55 59.8532 63.9108 57.8691 65.9262C56.4865 67.3629 54.8623 68.1367 53.3472 68.5696L53.3394 68.5718C50.4479 69.3773 48.4431 72.0229 48.4431 75.0174V78.511H80.2029V75.0174C80.2029 72.0229 78.198 69.3773 75.3065 68.5718L75.2988 68.5696C73.7836 68.1368 72.1594 67.3629 70.7767 65.9262C68.7927 63.9108 68.22 61.55 68.0082 60.4115C67.8848 59.7482 68.3224 59.1105 68.9857 58.9871C69.6489 58.8637 70.2866 59.3014 70.41 59.9646C70.5889 60.926 71.0414 62.7151 72.5219 64.2165L72.5331 64.2278C73.5424 65.2783 74.7484 65.8711 75.9663 66.2195C79.9131 67.321 82.6459 70.9286 82.6459 75.0174V79.7326C82.6459 80.4072 82.099 80.9541 81.4244 80.9541H47.2215C46.5469 80.9541 46 80.4072 46 79.7326V75.0174C46 70.9286 48.7328 67.321 52.6796 66.2195C53.8975 65.8711 55.1036 65.2784 56.1129 64.2279L56.1239 64.2164C57.6045 62.715 58.057 60.926 58.2359 59.9646C58.3593 59.3014 58.997 58.8637 59.6603 58.9871Z" fill="#F27071"/>
<path d="M54.7706 46.2379C55.0393 44.5522 55.6745 42.9398 56.7983 41.7182C59.0948 39.1774 62.3685 37.8826 65.5933 38.2979C68.1585 38.6155 70.0641 39.9592 71.3345 41.2052C72.7026 42.5489 73.5577 44.3323 73.8509 46.2867C74.1685 48.3634 74.2662 51.295 73.2645 54.5443C72.7759 56.1079 72.1407 57.4515 71.4811 58.5998C69.942 61.1894 67.1813 62.6797 64.2985 62.6797C61.4157 62.6797 58.655 61.1894 57.1159 58.5998C56.4319 57.476 55.7967 56.1323 55.3325 54.5443C54.3552 51.2706 54.453 48.3389 54.7706 46.2623V46.2379Z" fill="#F2B3B3"/>
<path fill-rule="evenodd" clip-rule="evenodd" d="M65.4374 39.5097C62.6428 39.1498 59.756 40.268 57.7046 42.5376L57.6974 42.5456C56.7943 43.5272 56.2367 44.8668 55.9882 46.3616C55.9858 46.3902 55.9825 46.4188 55.9781 46.4473C55.6804 48.394 55.5899 51.1362 56.503 54.1952L56.505 54.2018C56.9367 55.6785 57.5261 56.9245 58.1594 57.9649L58.1661 57.9759C59.4788 60.1845 61.8342 61.4584 64.2986 61.4584C66.7602 61.4584 69.1131 60.1875 70.4266 57.9835C71.0475 56.9016 71.6414 55.6429 72.098 54.1825C73.0308 51.155 72.9412 48.4184 72.6435 46.4717L72.6429 46.4682C72.3852 44.7497 71.6395 43.2171 70.4788 42.077M65.7465 37.0863C62.0941 36.617 58.4365 38.0868 55.8957 40.8955C54.5675 42.3412 53.8588 44.1986 53.5644 46.0458C53.5589 46.0802 53.5549 46.1148 53.5523 46.1495C53.2237 48.3509 53.132 51.441 54.1611 54.8906C54.657 56.5859 55.3362 58.0244 56.0693 59.2297C57.8355 62.197 60.9995 63.9015 64.2986 63.9015C67.5998 63.9015 70.7657 62.1948 72.5313 59.2241L72.5404 59.2085C73.2367 57.9963 73.9112 56.571 74.4306 54.9089L74.432 54.9044C75.5015 51.4348 75.3959 48.3094 75.0586 46.1034C74.7297 43.9139 73.7654 41.8807 72.1905 40.3339C70.8064 38.9764 68.6666 37.4487 65.7465 37.0863ZM70.4788 42.077C69.3226 40.9433 67.6518 39.7839 65.4433 39.5105L65.4374 39.5097" fill="#F27071"/>
<path fill-rule="evenodd" clip-rule="evenodd" d="M18.6666 15.9999C18.6666 14.5272 19.8605 13.3333 21.3333 13.3333H32C33.4727 13.3333 34.6666 14.5272 34.6666 15.9999C34.6666 17.4727 33.4727 18.6666 32 18.6666H24V26.6666C24 28.1393 22.8061 29.3333 21.3333 29.3333C19.8605 29.3333 18.6666 28.1393 18.6666 26.6666V15.9999Z" fill="#F27071"/>
<path fill-rule="evenodd" clip-rule="evenodd" d="M93.3333 15.9999C93.3333 14.5272 94.5272 13.3333 95.9999 13.3333H106.667C108.139 13.3333 109.333 14.5272 109.333 15.9999V26.6666C109.333 28.1393 108.139 29.3333 106.667 29.3333C105.194 29.3333 104 28.1393 104 26.6666V18.6666H95.9999C94.5272 18.6666 93.3333 17.4727 93.3333 15.9999Z" fill="#F27071"/>
<path fill-rule="evenodd" clip-rule="evenodd" d="M106.667 50.6665C108.139 50.6665 109.333 51.8604 109.333 53.3332V63.9998C109.333 65.4726 108.139 66.6665 106.667 66.6665H95.9999C94.5272 66.6665 93.3333 65.4726 93.3333 63.9998C93.3333 62.5271 94.5272 61.3332 95.9999 61.3332H104V53.3332C104 51.8604 105.194 50.6665 106.667 50.6665Z" fill="#F27071"/>
<path fill-rule="evenodd" clip-rule="evenodd" d="M21.3333 50.6665C22.8061 50.6665 24 51.8604 24 53.3332V61.3332H32C33.4727 61.3332 34.6666 62.5271 34.6666 63.9998C34.6666 65.4726 33.4727 66.6665 32 66.6665H21.3333C19.8605 66.6665 18.6666 65.4726 18.6666 63.9998V53.3332C18.6666 51.8604 19.8605 50.6665 21.3333 50.6665Z" fill="#F27071"/>
<path d="M90.682 26.3335H85.6685C84.1751 26.3335 83.0017 25.1602 83.0017 23.6668C83.0017 22.1734 84.1751 21 85.6685 21H90.682C92.1754 21 93.3488 22.1734 93.3488 23.6668C93.3488 25.1602 92.1754 26.3335 90.682 26.3335ZM75.0014 26.3335H69.6679C68.1745 26.3335 67.0012 25.1602 67.0012 23.6668C67.0012 22.1734 68.1745 21 69.6679 21H75.0014C76.4948 21 77.6682 22.1734 77.6682 23.6668C77.6682 25.1602 76.4948 26.3335 75.0014 26.3335ZM59.0009 26.3335H53.6673C52.174 26.3335 51.0006 25.1602 51.0006 23.6668C51.0006 22.1734 52.174 21 53.6673 21H59.0009C60.4943 21 61.6676 22.1734 61.6676 23.6668C61.6676 25.1602 60.4943 26.3335 59.0009 26.3335ZM43.0003 26.3335H37.6668C36.1734 26.3335 35 25.1602 35 23.6668C35 22.1734 36.1734 21 37.6668 21H43.0003C44.4937 21 45.6671 22.1734 45.6671 23.6668C45.6671 25.1602 44.4937 26.3335 43.0003 26.3335Z" fill="#EC2228"/>
</svg>
