<svg width="406" height="406" viewBox="0 0 406 406" fill="none" xmlns="http://www.w3.org/2000/svg">
<path fill-rule="evenodd" clip-rule="evenodd" d="M113.122 23.4767C115.808 28.3115 114.073 34.4143 109.247 37.1075C86.5932 49.7509 70.6284 72.918 68.3573 100.607C67.9048 106.123 63.076 110.228 57.5717 109.777C52.0674 109.325 47.9721 104.488 48.4246 98.9719C51.2653 64.3391 71.2835 35.3583 99.5207 19.599C104.346 16.9058 110.436 18.6419 113.122 23.4767Z" fill="url(#paint0_linear_369_30)"/>
<path fill-rule="evenodd" clip-rule="evenodd" d="M74.4874 25.8786C74.9389 20.3743 79.7671 16.2781 85.2715 16.7296L105.205 18.3646C110.709 18.8161 114.805 23.6443 114.354 29.1486L112.719 49.0817C112.267 54.586 107.439 58.6822 101.935 58.2307C96.4302 57.7792 92.334 52.9511 92.7855 47.4467L93.603 37.4802L83.6365 36.6627C78.1321 36.2112 74.0359 31.383 74.4874 25.8786Z" fill="url(#paint1_linear_369_30)"/>
<path fill-rule="evenodd" clip-rule="evenodd" d="M104.901 70.2562C113.162 61.9144 124.365 57.228 136.048 57.228H269.952C281.635 57.228 292.838 61.9144 301.099 70.2562C309.359 78.598 314 89.9118 314 101.709V338.347C314 350.144 309.359 361.458 301.099 369.8C292.838 378.142 281.635 382.828 269.952 382.828H136.048C124.365 382.828 113.162 378.142 104.901 369.8C96.6407 361.458 92 350.144 92 338.347V101.709C92 89.9118 96.6407 78.598 104.901 70.2562ZM136.048 78.5788C129.973 78.5788 124.147 81.0158 119.852 85.3535C115.556 89.6912 113.143 95.5744 113.143 101.709V338.347C113.143 344.482 115.556 350.365 119.852 354.703C124.147 359.04 129.973 361.477 136.048 361.477H269.952C276.027 361.477 281.853 359.04 286.148 354.703C290.444 350.365 292.857 344.482 292.857 338.347V101.709C292.857 95.5744 290.444 89.6912 286.148 85.3535C281.853 81.0158 276.027 78.5788 269.952 78.5788H136.048ZM192.429 321.444C192.429 315.549 197.162 310.769 203 310.769H203.167C209.006 310.769 213.739 315.549 213.739 321.444C213.739 327.34 209.006 332.12 203.167 332.12H203C197.162 332.12 192.429 327.34 192.429 321.444Z" fill="url(#paint2_linear_369_30)"/>
<defs>
<linearGradient id="paint0_linear_369_30" x1="111.288" y1="66.5233" x2="51.4885" y2="61.6184" gradientUnits="userSpaceOnUse">
<stop stop-color="#3C82FD"/>
<stop offset="1" stop-color="#529FFB"/>
</linearGradient>
<linearGradient id="paint1_linear_369_30" x1="113.536" y1="39.1152" x2="73.6699" y2="35.8452" gradientUnits="userSpaceOnUse">
<stop stop-color="#3C82FD"/>
<stop offset="1" stop-color="#529FFB"/>
</linearGradient>
<linearGradient id="paint2_linear_369_30" x1="314" y1="220.028" x2="92" y2="220.028" gradientUnits="userSpaceOnUse">
<stop stop-color="#3C82FD"/>
<stop offset="1" stop-color="#529FFB"/>
</linearGradient>
</defs>
</svg>
