<svg width="406" height="406" viewBox="0 0 406 406" fill="none" xmlns="http://www.w3.org/2000/svg">
<path fill-rule="evenodd" clip-rule="evenodd" d="M68.6211 67.6211C76.062 60.1802 86.1541 56 96.6771 56H310.323C320.846 56 330.938 60.1803 338.379 67.6211C345.82 75.062 350 85.1541 350 95.6771V248.281C350 258.804 345.82 268.896 338.379 276.337C330.938 283.778 320.846 287.958 310.323 287.958H249.563L257.549 319.902L271.016 333.369C273.635 335.988 274.418 339.926 273.001 343.348C271.584 346.769 268.245 349 264.542 349H142.458C138.755 349 135.416 346.769 133.999 343.348C132.582 339.926 133.365 335.988 135.984 333.369L149.451 319.902L157.437 287.958H96.6771C86.1541 287.958 76.062 283.778 68.6211 276.337C61.1803 268.896 57 258.804 57 248.281V95.6771C57 85.1541 61.1802 75.062 68.6211 67.6211ZM75.3125 226.917H331.687V248.281C331.687 253.947 329.437 259.382 325.43 263.388C321.423 267.395 315.989 269.646 310.323 269.646H96.6771C91.0108 269.646 85.5767 267.395 81.57 263.388C77.5634 259.382 75.3125 253.947 75.3125 248.281V226.917ZM331.687 208.604H75.3125V95.6771C75.3125 90.0108 77.5634 84.5767 81.57 80.57C85.5767 76.5634 91.0108 74.3125 96.6771 74.3125H310.323C315.989 74.3125 321.423 76.5634 325.43 80.57C329.437 84.5767 331.687 90.0108 331.687 95.6771V208.604ZM176.313 287.958L166.602 326.804C166.24 328.249 165.533 329.581 164.543 330.687H242.457C241.467 329.581 240.76 328.249 240.398 326.804L230.687 287.958H176.313Z" fill="url(#paint0_linear_368_25)"/>
<path fill-rule="evenodd" clip-rule="evenodd" d="M169.692 121.566C169.692 117.165 173.332 113.598 177.821 113.598H177.902C182.392 113.598 186.031 117.165 186.031 121.566C186.031 125.966 182.392 129.533 177.902 129.533H177.821C173.332 129.533 169.692 125.966 169.692 121.566ZM218.465 121.566C218.465 117.165 222.104 113.598 226.593 113.598H226.675C231.164 113.598 234.803 117.165 234.803 121.566C234.803 125.966 231.164 129.533 226.675 129.533H226.593C222.104 129.533 218.465 125.966 218.465 121.566ZM202.207 169.378C195.741 169.378 189.539 171.895 184.966 176.376C181.791 179.488 176.644 179.487 173.47 176.375C170.296 173.263 170.297 168.218 173.472 165.107C181.094 157.638 191.43 153.443 202.207 153.443C212.984 153.443 223.32 157.638 230.942 165.107C234.117 168.218 234.118 173.263 230.944 176.375C227.77 179.487 222.623 179.488 219.448 176.376C214.875 171.895 208.674 169.378 202.207 169.378Z" fill="url(#paint1_linear_368_25)"/>
<defs>
<linearGradient id="paint0_linear_368_25" x1="350" y1="202.5" x2="57" y2="202.5" gradientUnits="userSpaceOnUse">
<stop stop-color="#3C82FD"/>
<stop offset="1" stop-color="#529FFB"/>
</linearGradient>
<linearGradient id="paint1_linear_368_25" x1="234.803" y1="146.154" x2="169.692" y2="146.154" gradientUnits="userSpaceOnUse">
<stop stop-color="#3C82FD"/>
<stop offset="1" stop-color="#529FFB"/>
</linearGradient>
</defs>
</svg>
