<svg width="406" height="406" viewBox="0 0 406 406" fill="none" xmlns="http://www.w3.org/2000/svg">
<path fill-rule="evenodd" clip-rule="evenodd" d="M104.901 53.2283C113.162 44.8866 124.365 40.2002 136.048 40.2002H269.952C281.635 40.2002 292.838 44.8866 301.099 53.2283C309.359 61.5701 314 72.884 314 84.6811V321.319C314 333.116 309.359 344.43 301.099 352.772C292.838 361.114 281.635 365.8 269.952 365.8H136.048C124.365 365.8 113.162 361.114 104.901 352.772C96.6407 344.43 92 333.116 92 321.319V84.6811C92 72.884 96.6407 61.5701 104.901 53.2283ZM136.048 61.551C129.973 61.551 124.147 63.9879 119.852 68.3257C115.556 72.6634 113.143 78.5466 113.143 84.6811V321.319C113.143 327.454 115.556 333.337 119.852 337.675C124.147 342.012 129.973 344.449 136.048 344.449H269.952C276.027 344.449 281.853 342.012 286.148 337.675C290.444 333.337 292.857 327.454 292.857 321.319V84.6811C292.857 78.5466 290.444 72.6634 286.148 68.3257C281.853 63.9879 276.027 61.551 269.952 61.551H136.048ZM192.429 304.417C192.429 298.521 197.162 293.741 203 293.741H203.167C209.006 293.741 213.739 298.521 213.739 304.417C213.739 310.312 209.006 315.092 203.167 315.092H203C197.162 315.092 192.429 310.312 192.429 304.417Z" fill="url(#paint0_linear_368_19)"/>
<path fill-rule="evenodd" clip-rule="evenodd" d="M170.933 146.715C170.933 142.38 174.518 138.867 178.94 138.867H179.02C183.442 138.867 187.027 142.38 187.027 146.715C187.027 151.049 183.442 154.563 179.02 154.563H178.94C174.518 154.563 170.933 151.049 170.933 146.715ZM218.973 146.715C218.973 142.38 222.558 138.867 226.98 138.867H227.06C231.482 138.867 235.067 142.38 235.067 146.715C235.067 151.049 231.482 154.563 227.06 154.563H226.98C222.558 154.563 218.973 151.049 218.973 146.715ZM202.96 193.809C196.591 193.809 190.482 196.288 185.978 200.702C182.851 203.767 177.781 203.766 174.655 200.701C171.528 197.635 171.529 192.666 174.656 189.602C182.164 182.246 192.345 178.113 202.96 178.113C213.575 178.113 223.756 182.246 231.264 189.602C234.391 192.666 234.392 197.635 231.265 200.701C228.139 203.766 223.069 203.767 219.942 200.702C215.438 196.288 209.329 193.809 202.96 193.809Z" fill="url(#paint1_linear_368_19)"/>
<defs>
<linearGradient id="paint0_linear_368_19" x1="314" y1="203" x2="92" y2="203" gradientUnits="userSpaceOnUse">
<stop stop-color="#3C82FD"/>
<stop offset="1" stop-color="#529FFB"/>
</linearGradient>
<linearGradient id="paint1_linear_368_19" x1="235.067" y1="170.933" x2="170.933" y2="170.933" gradientUnits="userSpaceOnUse">
<stop stop-color="#3C82FD"/>
<stop offset="1" stop-color="#529FFB"/>
</linearGradient>
</defs>
</svg>
