<svg width="406" height="406" viewBox="0 0 406 406" fill="none" xmlns="http://www.w3.org/2000/svg">
<path fill-rule="evenodd" clip-rule="evenodd" d="M235.173 88.0979C220.503 78.7623 202.648 75.5346 185.543 79.1428C168.439 82.7506 153.524 92.8882 144.056 107.287C134.591 121.681 131.334 139.168 134.982 155.908C135.958 160.385 133.117 164.806 128.628 165.797C116.35 168.506 105.546 175.572 98.2691 185.608C90.9943 195.641 87.748 207.944 89.1312 220.165C90.5145 232.386 96.435 243.698 105.79 251.924C115.139 260.145 127.259 264.701 139.835 264.695L205.706 264.047V185.447C205.706 180.852 209.445 177.127 214.056 177.127C218.667 177.127 222.405 180.852 222.405 185.447V263.883L287.341 263.244C303.06 259.917 316.987 251.056 326.503 238.347C336.169 225.439 340.603 209.476 338.969 193.555C337.334 177.633 329.742 162.854 317.634 152.097C305.524 141.337 289.762 135.372 273.406 135.389H271.914C267.986 135.389 264.589 132.66 263.755 128.834C260.106 112.093 249.839 97.4311 235.173 88.0979ZM205.706 280.688L139.887 281.336C123.25 281.354 107.173 275.333 94.741 264.401C82.3059 253.467 74.3886 238.383 72.5377 222.03C70.6866 205.676 75.0368 189.236 84.7339 175.862C92.8758 164.633 104.301 156.235 117.371 151.71C115.177 133.024 119.625 114.079 130.088 98.1668C141.996 80.0576 160.708 67.3725 182.085 62.8633C203.46 58.3545 225.787 62.3805 244.161 74.0736C260.654 84.5691 272.761 100.48 278.397 118.893C297.027 119.99 314.799 127.284 328.747 139.677C343.943 153.178 353.518 171.773 355.581 191.861C357.643 211.951 352.042 232.065 339.887 248.298C327.734 264.528 309.904 275.713 289.875 279.714C289.361 279.816 288.839 279.871 288.316 279.876L222.405 280.524V340.678L252.697 310.879C255.978 307.65 261.265 307.684 264.504 310.954C267.744 314.224 267.71 319.492 264.428 322.72L219.922 366.505C216.67 369.703 211.442 369.703 208.19 366.505L163.683 322.72C160.402 319.492 160.368 314.224 163.608 310.954C166.847 307.684 172.134 307.65 175.415 310.879L205.706 340.678V280.688Z" fill="url(#paint0_linear_291_102)"/>
<path fill-rule="evenodd" clip-rule="evenodd" d="M144.404 141.399C136.309 147.153 126.437 149.854 116.54 149.024C106.643 148.193 97.3602 143.885 90.3369 136.863C83.3137 129.84 79.0042 120.557 78.1727 110.661C77.3412 100.764 80.0414 90.892 85.7945 82.7962L144.404 141.413V141.399ZM154.309 131.494L95.6993 72.8914C103.795 67.1335 113.668 64.4294 123.568 65.2588C133.468 66.0881 142.753 70.3974 149.778 77.422C156.803 84.4466 161.112 93.7325 161.941 103.632C162.771 113.532 160.066 123.405 154.309 131.501V131.494ZM176.087 107.145C176.087 122.007 170.183 136.261 159.673 146.77C149.164 157.279 134.91 163.183 120.048 163.183C105.186 163.183 90.9321 157.279 80.4228 146.77C69.9136 136.261 64.0095 122.007 64.0095 107.145C64.0095 92.2826 69.9136 78.029 80.4228 67.5197C90.9321 57.0105 105.186 51.1064 120.048 51.1064C134.91 51.1064 149.164 57.0105 159.673 67.5197C170.183 78.029 176.087 92.2826 176.087 107.145V107.145Z" fill="#FF6565"/>
<defs>
<linearGradient id="paint0_linear_291_102" x1="356" y1="214.982" x2="72.1204" y2="214.982" gradientUnits="userSpaceOnUse">
<stop stop-color="#3C82FD"/>
<stop offset="1" stop-color="#529FFB"/>
</linearGradient>
</defs>
</svg>
