<svg width="406" height="406" viewBox="0 0 406 406" fill="none" xmlns="http://www.w3.org/2000/svg">
<circle cx="203" cy="203" r="168" fill="#F87171" fill-opacity="0.1"/>
<path fill-rule="evenodd" clip-rule="evenodd" d="M224.84 310.52C253.356 310.52 280.704 299.192 300.868 279.029C321.032 258.865 332.36 231.517 332.36 203C332.36 174.484 321.032 147.136 300.868 126.972C280.704 106.808 253.356 95.4805 224.84 95.4805C196.324 95.4805 168.976 106.808 148.812 126.972C128.648 147.136 117.32 174.484 117.32 203C117.32 231.517 128.648 258.865 148.812 279.029C168.976 299.192 196.324 310.52 224.84 310.52V310.52ZM207.462 166.618C204.927 164.17 201.532 162.816 198.008 162.846C194.485 162.877 191.114 164.29 188.622 166.782C186.13 169.274 184.716 172.645 184.686 176.169C184.655 179.693 186.01 183.088 188.458 185.623L205.836 203L188.458 220.378C187.174 221.618 186.15 223.101 185.446 224.741C184.742 226.381 184.371 228.144 184.355 229.929C184.34 231.713 184.68 233.483 185.356 235.135C186.032 236.787 187.029 238.287 188.291 239.549C189.553 240.811 191.054 241.809 192.706 242.485C194.357 243.161 196.127 243.501 197.912 243.485C199.696 243.47 201.46 243.099 203.1 242.394C204.739 241.69 206.222 240.666 207.462 239.383L224.84 222.005L242.218 239.383C244.753 241.831 248.148 243.185 251.672 243.155C255.196 243.124 258.567 241.711 261.058 239.219C263.55 236.727 264.964 233.356 264.994 229.832C265.025 226.308 263.67 222.913 261.222 220.378L243.844 203L261.222 185.623C263.67 183.088 265.025 179.693 264.994 176.169C264.964 172.645 263.55 169.274 261.058 166.782C258.567 164.29 255.196 162.877 251.672 162.846C248.148 162.816 244.753 164.17 242.218 166.618L224.84 183.996L207.462 166.618Z" fill="#F87171"/>
</svg>
