<svg width="406" height="406" viewBox="0 0 406 406" fill="none" xmlns="http://www.w3.org/2000/svg">
<circle cx="201.327" cy="203" r="167.327" fill="#04BEB4" fill-opacity="0.1"/>
<path d="M58.9012 140.926C59.2275 139.924 60.6446 139.924 60.9698 140.926L62.1336 144.507C62.2047 144.725 62.3429 144.915 62.5285 145.049C62.7141 145.184 62.9375 145.257 63.1668 145.257H66.9322C67.9861 145.257 68.4233 146.606 67.5717 147.226L64.5264 149.438C64.3404 149.573 64.202 149.763 64.1308 149.981C64.0597 150.2 64.0596 150.435 64.1305 150.654L65.2942 154.234C65.6205 155.236 64.4731 156.07 63.6193 155.45L60.5739 153.238C60.3882 153.103 60.1645 153.03 59.935 153.03C59.7054 153.03 59.4817 153.103 59.296 153.238L56.2506 155.45C55.3979 156.07 54.2516 155.236 54.5768 154.234L55.7405 150.654C55.8114 150.435 55.8113 150.2 55.7402 149.981C55.6691 149.763 55.5306 149.573 55.3447 149.438L52.3004 147.227C51.4488 146.607 51.8871 145.258 52.9399 145.258H56.7042C56.9337 145.258 57.1574 145.186 57.3432 145.051C57.529 144.916 57.6674 144.726 57.7385 144.508L58.9023 140.927L58.9012 140.926Z" fill="#04BEB4"/>
<path d="M338.101 58.1202C339.029 55.2692 343.063 55.2692 343.988 58.1202L347.301 68.3107C347.503 68.9313 347.896 69.4721 348.425 69.8557C348.953 70.2393 349.589 70.4462 350.241 70.4466H360.958C363.958 70.4466 365.202 74.2851 362.778 76.0496L354.111 82.3459C353.582 82.7299 353.188 83.2715 352.985 83.8932C352.783 84.5149 352.782 85.1848 352.984 85.8067L356.296 95.9973C357.225 98.8483 353.959 101.223 351.529 99.4581L342.862 93.1617C342.333 92.7779 341.696 92.5712 341.043 92.5712C340.39 92.5712 339.753 92.7779 339.224 93.1617L330.557 99.4581C328.13 101.223 324.867 98.8483 325.793 95.9973L329.105 85.8067C329.307 85.1848 329.307 84.5149 329.104 83.8932C328.902 83.2715 328.508 82.7299 327.978 82.3459L319.314 76.0527C316.89 74.2882 318.138 70.4497 321.134 70.4497H331.848C332.501 70.4499 333.138 70.2434 333.666 69.8597C334.195 69.4761 334.589 68.9349 334.792 68.3138L338.104 58.1233L338.101 58.1202Z" fill="#04BEB4"/>
<path d="M318.976 316.211C319.604 314.285 322.329 314.285 322.955 316.211L325.193 323.097C325.329 323.516 325.595 323.882 325.952 324.141C326.309 324.4 326.738 324.54 327.18 324.54H334.421C336.447 324.54 337.288 327.134 335.65 328.326L329.794 332.58C329.436 332.84 329.17 333.206 329.033 333.626C328.897 334.046 328.896 334.498 329.033 334.918L331.271 341.804C331.898 343.73 329.692 345.335 328.05 344.142L322.193 339.888C321.836 339.629 321.406 339.489 320.964 339.489C320.523 339.489 320.093 339.629 319.736 339.888L313.879 344.142C312.239 345.335 310.035 343.73 310.66 341.804L312.898 334.918C313.034 334.498 313.034 334.046 312.897 333.626C312.761 333.206 312.494 332.84 312.137 332.58L306.282 328.328C304.645 327.136 305.488 324.542 307.512 324.542H314.751C315.193 324.542 315.623 324.403 315.98 324.143C316.337 323.884 316.604 323.519 316.74 323.099L318.978 316.213L318.976 316.211Z" fill="#04BEB4"/>
<path fill-rule="evenodd" clip-rule="evenodd" d="M223.079 310.089C251.481 310.089 278.719 298.807 298.803 278.724C318.886 258.641 330.168 231.402 330.168 203C330.168 174.598 318.886 147.36 298.803 127.277C278.719 107.194 251.481 95.9111 223.079 95.9111C194.677 95.9111 167.439 107.194 147.356 127.277C127.273 147.36 115.99 174.598 115.99 203C115.99 231.402 127.273 258.641 147.356 278.724C167.439 298.807 194.677 310.089 223.079 310.089V310.089ZM272.702 185.692C275.14 183.167 276.489 179.786 276.459 176.276C276.428 172.766 275.02 169.409 272.538 166.927C270.057 164.445 266.699 163.037 263.189 163.007C259.68 162.976 256.298 164.326 253.774 166.764L209.693 210.845L192.385 193.536C189.86 191.098 186.479 189.749 182.969 189.779C179.459 189.81 176.102 191.217 173.62 193.699C171.138 196.181 169.73 199.539 169.7 203.048C169.669 206.558 171.018 209.94 173.457 212.464L200.229 239.237C202.739 241.746 206.143 243.156 209.693 243.156C213.242 243.156 216.647 241.746 219.157 239.237L272.702 185.692V185.692Z" fill="#04BEB4"/>
</svg>
