<svg width="183" height="151" viewBox="0 0 183 151" fill="none" xmlns="http://www.w3.org/2000/svg">
<g clip-path="url(#clip0_249_144)">
<path d="M181.409 34.9684C181.409 27.021 181.409 19.0736 181.409 11.1263C181.409 7.15258 179.022 4.76837 175.839 4.76837H175.043C171.065 4.76837 168.678 7.15258 168.678 11.1263C168.678 24.6368 168.678 37.3526 168.678 50.8631V70.7315L167.087 69.9368C166.291 69.1421 165.496 69.1421 165.496 68.3473C164.7 67.5526 163.109 66.7578 162.313 65.9631C153.561 58.8105 143.217 55.6315 133.67 55.6315C126.509 55.6315 120.143 57.221 112.983 60.3999C106.617 63.5789 101.843 66.7578 97.0696 71.5263C99.4565 75.5 101.843 79.4736 103.435 84.2421C109.8 74.7052 120.939 68.3473 132.874 68.3473C142.422 68.3473 151.97 72.321 158.335 78.6789C165.496 85.8315 168.678 94.5736 168.678 104.11C168.678 113.647 164.7 122.389 158.335 129.542C151.97 136.695 142.422 139.874 132.874 139.874C120.143 139.874 109.8 133.516 103.435 123.979C99.4565 118.416 97.8652 112.058 97.0696 105.7C97.0696 104.905 97.0696 104.905 97.0696 104.11V103.316C97.0696 102.521 97.0696 102.521 97.0696 101.726C96.2739 92.9842 94.6826 85.8315 90.7043 79.4736C89.113 76.2947 86.7261 73.9105 84.3391 71.5263C80.3609 66.7578 74.7913 63.5789 68.4261 60.3999C62.8565 57.221 55.6957 55.6315 48.5348 55.6315C38.987 55.6315 28.6435 58.8105 19.0957 65.9631C18.3 66.7578 16.7087 67.5526 15.913 68.3473C15.1174 69.1421 15.1174 69.1421 14.3217 69.9368L12.7304 70.7315V50.0684C12.7304 36.5578 12.7304 23.8421 12.7304 10.3315C12.7304 6.35784 10.3435 3.97363 6.36522 3.97363H5.56957C2.38696 3.97363 0 7.15258 0 10.3315C0 18.2789 0 26.2263 0 34.1736C0 57.221 0 80.2684 0 103.316C0 116.826 4.77391 127.953 14.3217 137.489C23.0739 146.232 35.8043 151 48.5348 151C54.9 151 62.0609 149.41 67.6304 147.026C73.9957 143.847 79.5652 139.874 84.3391 135.105C81.9522 131.132 79.5652 127.158 77.9739 123.184C71.6087 132.721 60.4696 139.079 48.5348 139.079C38.987 139.079 30.2348 135.105 23.0739 128.747C15.913 121.595 12.7304 112.853 12.7304 103.316C12.7304 93.7789 16.7087 84.2421 23.0739 77.8842C30.2348 70.7315 38.987 67.5526 48.5348 67.5526C61.2652 67.5526 71.6087 73.9105 77.9739 83.4473C81.9522 89.0105 84.3391 95.3684 84.3391 102.521V103.316C84.3391 104.11 84.3391 104.11 84.3391 104.905C84.3391 112.853 86.7261 120.8 90.7043 127.158C92.2957 130.337 94.6826 132.721 97.0696 135.105C101.843 139.874 107.413 143.847 113.778 147.026C120.143 149.41 126.509 151 132.874 151C145.604 151 158.335 146.232 167.087 137.489C176.635 127.953 181.409 116.032 181.409 103.316C181.409 81.0631 181.409 57.221 181.409 34.9684Z" fill="url(#paint0_linear_249_144)"/>
</g>
<defs>
<linearGradient id="paint0_linear_249_144" x1="181.409" y1="77.4868" x2="0" y2="77.4868" gradientUnits="userSpaceOnUse">
<stop stop-color="#3C82FD"/>
<stop offset="1" stop-color="#529FFB"/>
</linearGradient>
<clipPath id="clip0_249_144">
<rect width="183" height="151" fill="white"/>
</clipPath>
</defs>
</svg>
