<svg width="400" height="400" viewBox="0 0 400 400" fill="none" xmlns="http://www.w3.org/2000/svg">
<path fill-rule="evenodd" clip-rule="evenodd" d="M0 0H82.6856C85.9883 0 88.6656 2.69894 88.6656 6.02825C88.6656 9.35757 85.9883 12.0565 82.6856 12.0565H11.9601V82.7147C11.9601 86.044 9.28276 88.743 5.98006 88.743C2.67737 88.743 0 86.044 0 82.7147V0Z" fill="white"/>
<path fill-rule="evenodd" clip-rule="evenodd" d="M400 0H317.315C314.012 0 311.335 2.69894 311.335 6.02825C311.335 9.35757 314.012 12.0565 317.315 12.0565H388.04V82.7147C388.04 86.044 390.717 88.743 394.02 88.743C397.323 88.743 400 86.044 400 82.7147V0Z" fill="white"/>
<path fill-rule="evenodd" clip-rule="evenodd" d="M0 400H82.6856C85.9883 400 88.6656 397.301 88.6656 393.972C88.6656 390.642 85.9883 387.943 82.6856 387.943H11.9601V317.285C11.9601 313.956 9.28276 311.257 5.98006 311.257C2.67737 311.257 0 313.956 0 317.285V400Z" fill="white"/>
<path fill-rule="evenodd" clip-rule="evenodd" d="M400 400H317.315C314.012 400 311.335 397.301 311.335 393.972C311.335 390.642 314.012 387.943 317.315 387.943H388.04V317.285C388.04 313.956 390.717 311.257 394.02 311.257C397.323 311.257 400 313.956 400 317.285V400Z" fill="white"/>
</svg>
